<?xml version="1.0" encoding="UTF-8" standalone="no"?>
<!-- Created with Inkscape (http://www.inkscape.org/) -->

<svg
   width="16"
   height="16"
   viewBox="0 0 4.2333332 4.2333333"
   version="1.1"
   id="svg1"
   inkscape:version="1.3.2 (091e20e, 2023-11-25)"
   sodipodi:docname="favico2.svg"
   xml:space="preserve"
   inkscape:export-filename="../static/favicon.png"
   inkscape:export-xdpi="48"
   inkscape:export-ydpi="48"
   xmlns:inkscape="http://www.inkscape.org/namespaces/inkscape"
   xmlns:sodipodi="http://sodipodi.sourceforge.net/DTD/sodipodi-0.dtd"
   xmlns="http://www.w3.org/2000/svg"
   xmlns:svg="http://www.w3.org/2000/svg"><sodipodi:namedview
     id="namedview1"
     pagecolor="#ffffff"
     bordercolor="#666666"
     borderopacity="1.0"
     inkscape:showpageshadow="2"
     inkscape:pageopacity="0.0"
     inkscape:pagecheckerboard="0"
     inkscape:deskcolor="#d1d1d1"
     inkscape:document-units="px"
     showgrid="true"
     inkscape:zoom="51.429784"
     inkscape:cx="7.8262044"
     inkscape:cy="7.9428683"
     inkscape:window-width="1920"
     inkscape:window-height="1011"
     inkscape:window-x="0"
     inkscape:window-y="32"
     inkscape:window-maximized="1"
     inkscape:current-layer="layer1"><inkscape:grid
       id="grid1"
       units="px"
       originx="0"
       originy="0"
       spacingx="0.26458333"
       spacingy="0.26458333"
       empcolor="#3f3fff"
       empopacity="0.25098039"
       color="#3f3fff"
       opacity="0.1254902"
       empspacing="8"
       dotted="false"
       gridanglex="30"
       gridanglez="30"
       visible="true" /><inkscape:grid
       id="grid2"
       units="px"
       originx="0.13229166"
       originy="0.13229166"
       spacingx="0.26458333"
       spacingy="0.26458333"
       empcolor="#0099e5"
       empopacity="0.04313725"
       color="#3f3fff"
       opacity="0.1254902"
       empspacing="1"
       dotted="false"
       gridanglex="30"
       gridanglez="30"
       visible="true" /></sodipodi:namedview><defs
     id="defs1" /><g
     inkscape:label="Layer 1"
     inkscape:groupmode="layer"
     id="layer1"><path
       id="path1"
       style="fill:#000000;stroke-width:0.346965;stroke-linecap:round;stroke-linejoin:round"
       d="M 2.104781,0.52193196 C 0.52916665,0.52916663 0.52916671,2.1655067 0.52916666,2.7781249 c -4e-8,0.5114387 0.71074794,0.9260417 1.58749994,0.9260417 0.8767521,0 1.5875,-0.414603 1.5875,-0.9260417 0,-0.6126182 -6e-7,-2.26353676 -1.5993856,-2.25619294 z"
       sodipodi:nodetypes="sssss" /><circle
       style="fill:#ce7e7d;fill-opacity:1;stroke:none;stroke-width:0.331249;stroke-linecap:round;stroke-linejoin:round;stroke-opacity:1"
       id="circle8"
       cx="1.5213541"
       cy="2.2489581"
       r="0.33072916" /><path
       id="path10"
       style="fill:#ce7e7d;fill-opacity:1;stroke-width:0.355183;stroke-linecap:round;stroke-linejoin:round;stroke:none;stroke-opacity:1"
       d="M 1.7570156,0.62686497 A 0.17731294,0.35462588 88.327155 0 0 2.1166666,0.79374995 0.17731294,0.35462588 88.327155 0 0 2.4659652,0.60616043 0.35462588,0.35462588 0 0 0 2.2797706,0.30463338 0.35462588,0.35462588 0 0 0 1.9252957,0.31498585 0.35462588,0.35462588 0 0 0 1.7573847,0.6157685 0.17731294,0.35462588 88.327155 0 0 1.7570042,0.62687706 Z" /><path
       id="path13"
       style="fill:#ce7e7d;fill-opacity:1;stroke-width:0.355183;stroke-linecap:round;stroke-linejoin:round;stroke:none;stroke-opacity:1"
       d="m 3.1292189,1.0613764 a 0.35462588,0.17731294 56.80437 0 0 0.045781,0.3938318 0.35462588,0.17731294 56.80437 0 0 0.3425338,0.1996746 0.35462588,0.35462588 0 0 0 0.1596818,-0.316368 0.35462588,0.35462588 0 0 0 -0.1941575,-0.2967532 0.35462588,0.35462588 0 0 0 -0.3441871,0.014128 0.35462588,0.17731294 56.80437 0 0 -0.00967,0.00548 z" /><path
       id="path14"
       style="fill:#ce7e7d;fill-opacity:1;stroke-width:0.355183;stroke-linecap:round;stroke-linejoin:round;stroke:none;stroke-opacity:1"
       d="M 1.1041143,1.0613764 A 0.17731294,0.35462588 33.19563 0 1 1.0583333,1.4552082 0.17731294,0.35462588 33.19563 0 1 0.71579946,1.6548828 0.35462588,0.35462588 0 0 1 0.5561177,1.3385148 0.35462588,0.35462588 0 0 1 0.75027516,1.0417617 a 0.35462588,0.35462588 0 0 1 0.34418714,0.014128 0.17731294,0.35462588 33.19563 0 1 0.00967,0.00548 z" /><path
       id="path15"
       style="fill:#ce7e7d;fill-opacity:1;stroke:none;stroke-width:0.355183;stroke-linecap:round;stroke-linejoin:round;stroke-opacity:1"
       d="M 3.6991994,2.4157692 A 0.17731294,0.35462588 10.458358 0 0 3.4604602,2.7323178 0.17731294,0.35462588 10.458358 0 0 3.5704551,3.1132383 0.35462588,0.35462588 0 0 0 3.9043777,2.9945678 0.35462588,0.35462588 0 0 0 3.9687498,2.6458332 0.35462588,0.35462588 0 0 0 3.7099704,2.4184622 0.17731294,0.35462588 10.458358 0 0 3.699191,2.4157518 Z" /><path
       id="path16"
       style="fill:#ce7e7d;fill-opacity:1;stroke:none;stroke-width:0.355183;stroke-linecap:round;stroke-linejoin:round;stroke-opacity:1"
       d="m 0.55501077,2.4615762 a 0.35462588,0.17731294 79.541642 0 1 0.2387392,0.3165486 0.35462588,0.17731294 79.541642 0 1 -0.1099949,0.3809205 0.35462588,0.35462588 0 0 1 -0.3339226,-0.1186705 0.35462588,0.35462588 0 0 1 -0.0643721,-0.3487346 0.35462588,0.35462588 0 0 1 0.2587794,-0.227371 0.35462588,0.17731294 79.541642 0 1 0.010779,-0.00271 z" /><circle
       style="fill:#ce7e7d;fill-opacity:1;stroke:none;stroke-width:0.331249;stroke-linecap:round;stroke-linejoin:round;stroke-opacity:1"
       id="circle19"
       cx="2.7805634"
       cy="3.3072915"
       r="0.33072916" /><circle
       style="fill:#ce7e7d;fill-opacity:1;stroke:none;stroke-width:0.331249;stroke-linecap:round;stroke-linejoin:round;stroke-opacity:1"
       id="circle20"
       cx="1.5041995"
       cy="3.3020046"
       r="0.33072916" /><circle
       style="fill:#ce7e7d;fill-opacity:1;stroke:none;stroke-width:0.331249;stroke-linecap:round;stroke-linejoin:round;stroke-opacity:1"
       id="circle21"
       cx="2.6458333"
       cy="2.315104"
       r="0.33072916" /><circle
       style="fill:#ce7e7d;fill-opacity:1;stroke:none;stroke-width:0.331249;stroke-linecap:round;stroke-linejoin:round;stroke-opacity:1"
       id="circle22"
       cx="2.1233156"
       cy="1.4552082"
       r="0.33072916" /></g></svg>
